<mxfile host="app.diagrams.net" modified="2023-07-25T06:54:23.291Z" agent="Mozilla/5.0 (Macintosh; Intel Mac OS X 10_15_7) AppleWebKit/537.36 (KHTML, like Gecko) Chrome/114.0.0.0 Safari/537.36" etag="gS-J_4wdLgHVdRBQEVJG" version="21.3.6" type="github">
  <diagram name="Page-1" id="OMmTHe43EUoeT7iVofyU">
    <mxGraphModel dx="1306" dy="1872" grid="1" gridSize="10" guides="1" tooltips="1" connect="1" arrows="1" fold="1" page="1" pageScale="1" pageWidth="850" pageHeight="1100" math="0" shadow="0">
      <root>
        <mxCell id="0" />
        <mxCell id="1" parent="0" />
        <mxCell id="ebWgYVlHbPhllgyKeteg-1" value="Context" style="swimlane;fontStyle=1;align=center;verticalAlign=top;childLayout=stackLayout;horizontal=1;startSize=26;horizontalStack=0;resizeParent=1;resizeParentMax=0;resizeLast=0;collapsible=1;marginBottom=0;whiteSpace=wrap;html=1;" vertex="1" parent="1">
          <mxGeometry x="235" y="-390" width="525" height="450" as="geometry" />
        </mxCell>
        <mxCell id="ebWgYVlHbPhllgyKeteg-2" value="+ field: type" style="text;strokeColor=none;fillColor=none;align=left;verticalAlign=top;spacingLeft=4;spacingRight=4;overflow=hidden;rotatable=0;points=[[0,0.5],[1,0.5]];portConstraint=eastwest;whiteSpace=wrap;html=1;" vertex="1" parent="ebWgYVlHbPhllgyKeteg-1">
          <mxGeometry y="26" width="525" height="26" as="geometry" />
        </mxCell>
        <mxCell id="ebWgYVlHbPhllgyKeteg-3" value="" style="line;strokeWidth=1;fillColor=none;align=left;verticalAlign=middle;spacingTop=-1;spacingLeft=3;spacingRight=3;rotatable=0;labelPosition=right;points=[];portConstraint=eastwest;strokeColor=inherit;" vertex="1" parent="ebWgYVlHbPhllgyKeteg-1">
          <mxGeometry y="52" width="525" height="8" as="geometry" />
        </mxCell>
        <mxCell id="ebWgYVlHbPhllgyKeteg-4" value="&lt;div&gt;createPackageContext(String packageName,&lt;span style=&quot;background-color: initial;&quot;&gt;int flags):Context&lt;/span&gt;&lt;/div&gt;" style="text;strokeColor=none;fillColor=none;align=left;verticalAlign=top;spacingLeft=4;spacingRight=4;overflow=hidden;rotatable=0;points=[[0,0.5],[1,0.5]];portConstraint=eastwest;whiteSpace=wrap;html=1;" vertex="1" parent="ebWgYVlHbPhllgyKeteg-1">
          <mxGeometry y="60" width="525" height="26" as="geometry" />
        </mxCell>
        <mxCell id="ebWgYVlHbPhllgyKeteg-61" value="&lt;div&gt;createPackageContextAsUser(&lt;span style=&quot;background-color: initial;&quot;&gt;String packageName, int flagsUserHandle user):Context&lt;/span&gt;&lt;/div&gt;" style="text;strokeColor=none;fillColor=none;align=left;verticalAlign=top;spacingLeft=4;spacingRight=4;overflow=hidden;rotatable=0;points=[[0,0.5],[1,0.5]];portConstraint=eastwest;whiteSpace=wrap;html=1;" vertex="1" parent="ebWgYVlHbPhllgyKeteg-1">
          <mxGeometry y="86" width="525" height="26" as="geometry" />
        </mxCell>
        <mxCell id="ebWgYVlHbPhllgyKeteg-62" value="createContextAsUser(UserHandle user, int flags):Context" style="text;strokeColor=none;fillColor=none;align=left;verticalAlign=top;spacingLeft=4;spacingRight=4;overflow=hidden;rotatable=0;points=[[0,0.5],[1,0.5]];portConstraint=eastwest;whiteSpace=wrap;html=1;" vertex="1" parent="ebWgYVlHbPhllgyKeteg-1">
          <mxGeometry y="112" width="525" height="26" as="geometry" />
        </mxCell>
        <mxCell id="ebWgYVlHbPhllgyKeteg-63" value="&lt;div&gt;createApplicationContext(ApplicationInfo application,&lt;span style=&quot;background-color: initial;&quot;&gt;int flags):Context&lt;/span&gt;&lt;/div&gt;" style="text;strokeColor=none;fillColor=none;align=left;verticalAlign=top;spacingLeft=4;spacingRight=4;overflow=hidden;rotatable=0;points=[[0,0.5],[1,0.5]];portConstraint=eastwest;whiteSpace=wrap;html=1;" vertex="1" parent="ebWgYVlHbPhllgyKeteg-1">
          <mxGeometry y="138" width="525" height="26" as="geometry" />
        </mxCell>
        <mxCell id="ebWgYVlHbPhllgyKeteg-64" value="createContextForSplit(String splitName):Context" style="text;strokeColor=none;fillColor=none;align=left;verticalAlign=top;spacingLeft=4;spacingRight=4;overflow=hidden;rotatable=0;points=[[0,0.5],[1,0.5]];portConstraint=eastwest;whiteSpace=wrap;html=1;" vertex="1" parent="ebWgYVlHbPhllgyKeteg-1">
          <mxGeometry y="164" width="525" height="26" as="geometry" />
        </mxCell>
        <mxCell id="ebWgYVlHbPhllgyKeteg-65" value="&lt;div&gt;createConfigurationContext(&lt;span style=&quot;background-color: initial;&quot;&gt;Configuration overrideConfiguration):Context&lt;/span&gt;&lt;/div&gt;" style="text;strokeColor=none;fillColor=none;align=left;verticalAlign=top;spacingLeft=4;spacingRight=4;overflow=hidden;rotatable=0;points=[[0,0.5],[1,0.5]];portConstraint=eastwest;whiteSpace=wrap;html=1;" vertex="1" parent="ebWgYVlHbPhllgyKeteg-1">
          <mxGeometry y="190" width="525" height="26" as="geometry" />
        </mxCell>
        <mxCell id="ebWgYVlHbPhllgyKeteg-66" value="createDisplayContext(Display display):Context" style="text;strokeColor=none;fillColor=none;align=left;verticalAlign=top;spacingLeft=4;spacingRight=4;overflow=hidden;rotatable=0;points=[[0,0.5],[1,0.5]];portConstraint=eastwest;whiteSpace=wrap;html=1;" vertex="1" parent="ebWgYVlHbPhllgyKeteg-1">
          <mxGeometry y="216" width="525" height="26" as="geometry" />
        </mxCell>
        <mxCell id="ebWgYVlHbPhllgyKeteg-67" value="createWindowContext(int type, Bundle options) :Context" style="text;strokeColor=none;fillColor=none;align=left;verticalAlign=top;spacingLeft=4;spacingRight=4;overflow=hidden;rotatable=0;points=[[0,0.5],[1,0.5]];portConstraint=eastwest;whiteSpace=wrap;html=1;" vertex="1" parent="ebWgYVlHbPhllgyKeteg-1">
          <mxGeometry y="242" width="525" height="26" as="geometry" />
        </mxCell>
        <mxCell id="ebWgYVlHbPhllgyKeteg-68" value="&lt;div&gt;createWindowContext(Display display, int type,&lt;span style=&quot;background-color: initial;&quot;&gt;Bundle options):Context&lt;/span&gt;&lt;/div&gt;" style="text;strokeColor=none;fillColor=none;align=left;verticalAlign=top;spacingLeft=4;spacingRight=4;overflow=hidden;rotatable=0;points=[[0,0.5],[1,0.5]];portConstraint=eastwest;whiteSpace=wrap;html=1;" vertex="1" parent="ebWgYVlHbPhllgyKeteg-1">
          <mxGeometry y="268" width="525" height="26" as="geometry" />
        </mxCell>
        <mxCell id="ebWgYVlHbPhllgyKeteg-69" value="createContext(ContextParams contextParams):Context" style="text;strokeColor=none;fillColor=none;align=left;verticalAlign=top;spacingLeft=4;spacingRight=4;overflow=hidden;rotatable=0;points=[[0,0.5],[1,0.5]];portConstraint=eastwest;whiteSpace=wrap;html=1;" vertex="1" parent="ebWgYVlHbPhllgyKeteg-1">
          <mxGeometry y="294" width="525" height="26" as="geometry" />
        </mxCell>
        <mxCell id="ebWgYVlHbPhllgyKeteg-70" value="createAttributionContext(String attributionTag):Context" style="text;strokeColor=none;fillColor=none;align=left;verticalAlign=top;spacingLeft=4;spacingRight=4;overflow=hidden;rotatable=0;points=[[0,0.5],[1,0.5]];portConstraint=eastwest;whiteSpace=wrap;html=1;" vertex="1" parent="ebWgYVlHbPhllgyKeteg-1">
          <mxGeometry y="320" width="525" height="26" as="geometry" />
        </mxCell>
        <mxCell id="ebWgYVlHbPhllgyKeteg-71" value="createFeatureContext(String attributionTag):Context" style="text;strokeColor=none;fillColor=none;align=left;verticalAlign=top;spacingLeft=4;spacingRight=4;overflow=hidden;rotatable=0;points=[[0,0.5],[1,0.5]];portConstraint=eastwest;whiteSpace=wrap;html=1;" vertex="1" parent="ebWgYVlHbPhllgyKeteg-1">
          <mxGeometry y="346" width="525" height="26" as="geometry" />
        </mxCell>
        <mxCell id="ebWgYVlHbPhllgyKeteg-72" value="createDeviceProtectedStorageContext():Context" style="text;strokeColor=none;fillColor=none;align=left;verticalAlign=top;spacingLeft=4;spacingRight=4;overflow=hidden;rotatable=0;points=[[0,0.5],[1,0.5]];portConstraint=eastwest;whiteSpace=wrap;html=1;" vertex="1" parent="ebWgYVlHbPhllgyKeteg-1">
          <mxGeometry y="372" width="525" height="26" as="geometry" />
        </mxCell>
        <mxCell id="ebWgYVlHbPhllgyKeteg-73" value="createCredentialProtectedStorageContext():Context" style="text;strokeColor=none;fillColor=none;align=left;verticalAlign=top;spacingLeft=4;spacingRight=4;overflow=hidden;rotatable=0;points=[[0,0.5],[1,0.5]];portConstraint=eastwest;whiteSpace=wrap;html=1;" vertex="1" parent="ebWgYVlHbPhllgyKeteg-1">
          <mxGeometry y="398" width="525" height="26" as="geometry" />
        </mxCell>
        <mxCell id="ebWgYVlHbPhllgyKeteg-74" value="createTokenContext(IBinder token, Display display):Context" style="text;strokeColor=none;fillColor=none;align=left;verticalAlign=top;spacingLeft=4;spacingRight=4;overflow=hidden;rotatable=0;points=[[0,0.5],[1,0.5]];portConstraint=eastwest;whiteSpace=wrap;html=1;" vertex="1" parent="ebWgYVlHbPhllgyKeteg-1">
          <mxGeometry y="424" width="525" height="26" as="geometry" />
        </mxCell>
        <mxCell id="ebWgYVlHbPhllgyKeteg-59" style="edgeStyle=orthogonalEdgeStyle;rounded=0;orthogonalLoop=1;jettySize=auto;html=1;exitX=0.5;exitY=0;exitDx=0;exitDy=0;" edge="1" parent="1" source="ebWgYVlHbPhllgyKeteg-5" target="ebWgYVlHbPhllgyKeteg-1">
          <mxGeometry relative="1" as="geometry" />
        </mxCell>
        <mxCell id="ebWgYVlHbPhllgyKeteg-5" value="ContextWrapper" style="swimlane;fontStyle=1;align=center;verticalAlign=top;childLayout=stackLayout;horizontal=1;startSize=26;horizontalStack=0;resizeParent=1;resizeParentMax=0;resizeLast=0;collapsible=1;marginBottom=0;whiteSpace=wrap;html=1;" vertex="1" parent="1">
          <mxGeometry x="210" y="133" width="160" height="86" as="geometry" />
        </mxCell>
        <mxCell id="ebWgYVlHbPhllgyKeteg-6" value="-&amp;nbsp;mBase:Context" style="text;strokeColor=none;fillColor=none;align=left;verticalAlign=top;spacingLeft=4;spacingRight=4;overflow=hidden;rotatable=0;points=[[0,0.5],[1,0.5]];portConstraint=eastwest;whiteSpace=wrap;html=1;" vertex="1" parent="ebWgYVlHbPhllgyKeteg-5">
          <mxGeometry y="26" width="160" height="26" as="geometry" />
        </mxCell>
        <mxCell id="ebWgYVlHbPhllgyKeteg-7" value="" style="line;strokeWidth=1;fillColor=none;align=left;verticalAlign=middle;spacingTop=-1;spacingLeft=3;spacingRight=3;rotatable=0;labelPosition=right;points=[];portConstraint=eastwest;strokeColor=inherit;" vertex="1" parent="ebWgYVlHbPhllgyKeteg-5">
          <mxGeometry y="52" width="160" height="8" as="geometry" />
        </mxCell>
        <mxCell id="ebWgYVlHbPhllgyKeteg-8" value="attachBaseContext(Context)" style="text;strokeColor=none;fillColor=none;align=left;verticalAlign=top;spacingLeft=4;spacingRight=4;overflow=hidden;rotatable=0;points=[[0,0.5],[1,0.5]];portConstraint=eastwest;whiteSpace=wrap;html=1;" vertex="1" parent="ebWgYVlHbPhllgyKeteg-5">
          <mxGeometry y="60" width="160" height="26" as="geometry" />
        </mxCell>
        <mxCell id="ebWgYVlHbPhllgyKeteg-50" style="edgeStyle=orthogonalEdgeStyle;rounded=0;orthogonalLoop=1;jettySize=auto;html=1;exitX=0.5;exitY=0;exitDx=0;exitDy=0;" edge="1" parent="1" source="ebWgYVlHbPhllgyKeteg-9" target="ebWgYVlHbPhllgyKeteg-5">
          <mxGeometry relative="1" as="geometry" />
        </mxCell>
        <mxCell id="ebWgYVlHbPhllgyKeteg-9" value="ContextThemeWrapper" style="swimlane;fontStyle=1;align=center;verticalAlign=top;childLayout=stackLayout;horizontal=1;startSize=26;horizontalStack=0;resizeParent=1;resizeParentMax=0;resizeLast=0;collapsible=1;marginBottom=0;whiteSpace=wrap;html=1;" vertex="1" parent="1">
          <mxGeometry x="40" y="414" width="230" height="190" as="geometry" />
        </mxCell>
        <mxCell id="ebWgYVlHbPhllgyKeteg-10" value="mThemeResource:int" style="text;strokeColor=none;fillColor=none;align=left;verticalAlign=top;spacingLeft=4;spacingRight=4;overflow=hidden;rotatable=0;points=[[0,0.5],[1,0.5]];portConstraint=eastwest;whiteSpace=wrap;html=1;" vertex="1" parent="ebWgYVlHbPhllgyKeteg-9">
          <mxGeometry y="26" width="230" height="26" as="geometry" />
        </mxCell>
        <mxCell id="ebWgYVlHbPhllgyKeteg-45" value="mTheme:Resources.Theme" style="text;strokeColor=none;fillColor=none;align=left;verticalAlign=top;spacingLeft=4;spacingRight=4;overflow=hidden;rotatable=0;points=[[0,0.5],[1,0.5]];portConstraint=eastwest;whiteSpace=wrap;html=1;" vertex="1" parent="ebWgYVlHbPhllgyKeteg-9">
          <mxGeometry y="52" width="230" height="26" as="geometry" />
        </mxCell>
        <mxCell id="ebWgYVlHbPhllgyKeteg-44" value="mInflater:LayoutInflater" style="text;strokeColor=none;fillColor=none;align=left;verticalAlign=top;spacingLeft=4;spacingRight=4;overflow=hidden;rotatable=0;points=[[0,0.5],[1,0.5]];portConstraint=eastwest;whiteSpace=wrap;html=1;" vertex="1" parent="ebWgYVlHbPhllgyKeteg-9">
          <mxGeometry y="78" width="230" height="26" as="geometry" />
        </mxCell>
        <mxCell id="ebWgYVlHbPhllgyKeteg-47" value="mOverrideConfiguration:Configuration" style="text;strokeColor=none;fillColor=none;align=left;verticalAlign=top;spacingLeft=4;spacingRight=4;overflow=hidden;rotatable=0;points=[[0,0.5],[1,0.5]];portConstraint=eastwest;whiteSpace=wrap;html=1;" vertex="1" parent="ebWgYVlHbPhllgyKeteg-9">
          <mxGeometry y="104" width="230" height="26" as="geometry" />
        </mxCell>
        <mxCell id="ebWgYVlHbPhllgyKeteg-46" value="mResources:Resources" style="text;strokeColor=none;fillColor=none;align=left;verticalAlign=top;spacingLeft=4;spacingRight=4;overflow=hidden;rotatable=0;points=[[0,0.5],[1,0.5]];portConstraint=eastwest;whiteSpace=wrap;html=1;" vertex="1" parent="ebWgYVlHbPhllgyKeteg-9">
          <mxGeometry y="130" width="230" height="26" as="geometry" />
        </mxCell>
        <mxCell id="ebWgYVlHbPhllgyKeteg-11" value="" style="line;strokeWidth=1;fillColor=none;align=left;verticalAlign=middle;spacingTop=-1;spacingLeft=3;spacingRight=3;rotatable=0;labelPosition=right;points=[];portConstraint=eastwest;strokeColor=inherit;" vertex="1" parent="ebWgYVlHbPhllgyKeteg-9">
          <mxGeometry y="156" width="230" height="8" as="geometry" />
        </mxCell>
        <mxCell id="ebWgYVlHbPhllgyKeteg-12" value="+ method(type): type" style="text;strokeColor=none;fillColor=none;align=left;verticalAlign=top;spacingLeft=4;spacingRight=4;overflow=hidden;rotatable=0;points=[[0,0.5],[1,0.5]];portConstraint=eastwest;whiteSpace=wrap;html=1;" vertex="1" parent="ebWgYVlHbPhllgyKeteg-9">
          <mxGeometry y="164" width="230" height="26" as="geometry" />
        </mxCell>
        <mxCell id="ebWgYVlHbPhllgyKeteg-60" style="edgeStyle=orthogonalEdgeStyle;rounded=0;orthogonalLoop=1;jettySize=auto;html=1;exitX=0.5;exitY=0;exitDx=0;exitDy=0;" edge="1" parent="1" source="ebWgYVlHbPhllgyKeteg-13" target="ebWgYVlHbPhllgyKeteg-1">
          <mxGeometry relative="1" as="geometry" />
        </mxCell>
        <mxCell id="ebWgYVlHbPhllgyKeteg-13" value="ContextImpl" style="swimlane;fontStyle=1;align=center;verticalAlign=top;childLayout=stackLayout;horizontal=1;startSize=29;horizontalStack=0;resizeParent=1;resizeParentMax=0;resizeLast=0;collapsible=1;marginBottom=0;whiteSpace=wrap;html=1;" vertex="1" parent="1">
          <mxGeometry x="430" y="133" width="950" height="577" as="geometry" />
        </mxCell>
        <mxCell id="ebWgYVlHbPhllgyKeteg-14" value="- sSharedPrefsCache:ArrayMap&amp;lt;String, ArrayMap&amp;lt;File, SharedPreferencesImpl&amp;gt;&amp;gt;" style="text;strokeColor=none;fillColor=none;align=left;verticalAlign=top;spacingLeft=4;spacingRight=4;overflow=hidden;rotatable=0;points=[[0,0.5],[1,0.5]];portConstraint=eastwest;whiteSpace=wrap;html=1;" vertex="1" parent="ebWgYVlHbPhllgyKeteg-13">
          <mxGeometry y="29" width="950" height="20" as="geometry" />
        </mxCell>
        <mxCell id="ebWgYVlHbPhllgyKeteg-30" value="-&amp;nbsp;mSharedPrefsPaths:ArrayMap&amp;lt;String, File&amp;gt;" style="text;strokeColor=none;fillColor=none;align=left;verticalAlign=top;spacingLeft=4;spacingRight=4;overflow=hidden;rotatable=0;points=[[0,0.5],[1,0.5]];portConstraint=eastwest;whiteSpace=wrap;html=1;" vertex="1" parent="ebWgYVlHbPhllgyKeteg-13">
          <mxGeometry y="49" width="950" height="26" as="geometry" />
        </mxCell>
        <mxCell id="ebWgYVlHbPhllgyKeteg-54" value="mMainThread:ActivityThread" style="text;strokeColor=none;fillColor=none;align=left;verticalAlign=top;spacingLeft=4;spacingRight=4;overflow=hidden;rotatable=0;points=[[0,0.5],[1,0.5]];portConstraint=eastwest;whiteSpace=wrap;html=1;" vertex="1" parent="ebWgYVlHbPhllgyKeteg-13">
          <mxGeometry y="75" width="950" height="26" as="geometry" />
        </mxCell>
        <mxCell id="ebWgYVlHbPhllgyKeteg-31" value="mPackageInfo:LoadedApk" style="text;strokeColor=none;fillColor=none;align=left;verticalAlign=top;spacingLeft=4;spacingRight=4;overflow=hidden;rotatable=0;points=[[0,0.5],[1,0.5]];portConstraint=eastwest;whiteSpace=wrap;html=1;" vertex="1" parent="ebWgYVlHbPhllgyKeteg-13">
          <mxGeometry y="101" width="950" height="26" as="geometry" />
        </mxCell>
        <mxCell id="ebWgYVlHbPhllgyKeteg-33" value="mClassLoader:ClassLoader" style="text;strokeColor=none;fillColor=none;align=left;verticalAlign=top;spacingLeft=4;spacingRight=4;overflow=hidden;rotatable=0;points=[[0,0.5],[1,0.5]];portConstraint=eastwest;whiteSpace=wrap;html=1;" vertex="1" parent="ebWgYVlHbPhllgyKeteg-13">
          <mxGeometry y="127" width="950" height="26" as="geometry" />
        </mxCell>
        <mxCell id="ebWgYVlHbPhllgyKeteg-35" value="mToken:IBinder" style="text;strokeColor=none;fillColor=none;align=left;verticalAlign=top;spacingLeft=4;spacingRight=4;overflow=hidden;rotatable=0;points=[[0,0.5],[1,0.5]];portConstraint=eastwest;whiteSpace=wrap;html=1;" vertex="1" parent="ebWgYVlHbPhllgyKeteg-13">
          <mxGeometry y="153" width="950" height="26" as="geometry" />
        </mxCell>
        <mxCell id="ebWgYVlHbPhllgyKeteg-34" value="mUser:UserHandle" style="text;strokeColor=none;fillColor=none;align=left;verticalAlign=top;spacingLeft=4;spacingRight=4;overflow=hidden;rotatable=0;points=[[0,0.5],[1,0.5]];portConstraint=eastwest;whiteSpace=wrap;html=1;" vertex="1" parent="ebWgYVlHbPhllgyKeteg-13">
          <mxGeometry y="179" width="950" height="26" as="geometry" />
        </mxCell>
        <mxCell id="ebWgYVlHbPhllgyKeteg-36" value="mContentResolver:ApplicationContentResolver" style="text;strokeColor=none;fillColor=none;align=left;verticalAlign=top;spacingLeft=4;spacingRight=4;overflow=hidden;rotatable=0;points=[[0,0.5],[1,0.5]];portConstraint=eastwest;whiteSpace=wrap;html=1;" vertex="1" parent="ebWgYVlHbPhllgyKeteg-13">
          <mxGeometry y="205" width="950" height="26" as="geometry" />
        </mxCell>
        <mxCell id="ebWgYVlHbPhllgyKeteg-38" value="mBasePackageName:String" style="text;strokeColor=none;fillColor=none;align=left;verticalAlign=top;spacingLeft=4;spacingRight=4;overflow=hidden;rotatable=0;points=[[0,0.5],[1,0.5]];portConstraint=eastwest;whiteSpace=wrap;html=1;" vertex="1" parent="ebWgYVlHbPhllgyKeteg-13">
          <mxGeometry y="231" width="950" height="26" as="geometry" />
        </mxCell>
        <mxCell id="ebWgYVlHbPhllgyKeteg-37" value="mOpPackageName:String" style="text;strokeColor=none;fillColor=none;align=left;verticalAlign=top;spacingLeft=4;spacingRight=4;overflow=hidden;rotatable=0;points=[[0,0.5],[1,0.5]];portConstraint=eastwest;whiteSpace=wrap;html=1;" vertex="1" parent="ebWgYVlHbPhllgyKeteg-13">
          <mxGeometry y="257" width="950" height="26" as="geometry" />
        </mxCell>
        <mxCell id="ebWgYVlHbPhllgyKeteg-39" value="mParams:ContextParams" style="text;strokeColor=none;fillColor=none;align=left;verticalAlign=top;spacingLeft=4;spacingRight=4;overflow=hidden;rotatable=0;points=[[0,0.5],[1,0.5]];portConstraint=eastwest;whiteSpace=wrap;html=1;" vertex="1" parent="ebWgYVlHbPhllgyKeteg-13">
          <mxGeometry y="283" width="950" height="26" as="geometry" />
        </mxCell>
        <mxCell id="ebWgYVlHbPhllgyKeteg-41" value="mAttributionSource:AttributionSource" style="text;strokeColor=none;fillColor=none;align=left;verticalAlign=top;spacingLeft=4;spacingRight=4;overflow=hidden;rotatable=0;points=[[0,0.5],[1,0.5]];portConstraint=eastwest;whiteSpace=wrap;html=1;" vertex="1" parent="ebWgYVlHbPhllgyKeteg-13">
          <mxGeometry y="309" width="950" height="26" as="geometry" />
        </mxCell>
        <mxCell id="ebWgYVlHbPhllgyKeteg-40" value="mResourcesManager:ResourcesManager" style="text;strokeColor=none;fillColor=none;align=left;verticalAlign=top;spacingLeft=4;spacingRight=4;overflow=hidden;rotatable=0;points=[[0,0.5],[1,0.5]];portConstraint=eastwest;whiteSpace=wrap;html=1;" vertex="1" parent="ebWgYVlHbPhllgyKeteg-13">
          <mxGeometry y="335" width="950" height="26" as="geometry" />
        </mxCell>
        <mxCell id="ebWgYVlHbPhllgyKeteg-43" value="mResources:Resources" style="text;strokeColor=none;fillColor=none;align=left;verticalAlign=top;spacingLeft=4;spacingRight=4;overflow=hidden;rotatable=0;points=[[0,0.5],[1,0.5]];portConstraint=eastwest;whiteSpace=wrap;html=1;" vertex="1" parent="ebWgYVlHbPhllgyKeteg-13">
          <mxGeometry y="361" width="950" height="26" as="geometry" />
        </mxCell>
        <mxCell id="ebWgYVlHbPhllgyKeteg-42" value="mDisplay:Display" style="text;strokeColor=none;fillColor=none;align=left;verticalAlign=top;spacingLeft=4;spacingRight=4;overflow=hidden;rotatable=0;points=[[0,0.5],[1,0.5]];portConstraint=eastwest;whiteSpace=wrap;html=1;" vertex="1" parent="ebWgYVlHbPhllgyKeteg-13">
          <mxGeometry y="387" width="950" height="26" as="geometry" />
        </mxCell>
        <mxCell id="ebWgYVlHbPhllgyKeteg-15" value="" style="line;strokeWidth=1;fillColor=none;align=left;verticalAlign=middle;spacingTop=-1;spacingLeft=3;spacingRight=3;rotatable=0;labelPosition=right;points=[];portConstraint=eastwest;strokeColor=inherit;" vertex="1" parent="ebWgYVlHbPhllgyKeteg-13">
          <mxGeometry y="413" width="950" height="8" as="geometry" />
        </mxCell>
        <mxCell id="ebWgYVlHbPhllgyKeteg-16" value="createWindowContextBase(IBinder token, int displayId):ContextImpl" style="text;strokeColor=none;fillColor=none;align=left;verticalAlign=top;spacingLeft=4;spacingRight=4;overflow=hidden;rotatable=0;points=[[0,0.5],[1,0.5]];portConstraint=eastwest;whiteSpace=wrap;html=1;" vertex="1" parent="ebWgYVlHbPhllgyKeteg-13">
          <mxGeometry y="421" width="950" height="26" as="geometry" />
        </mxCell>
        <mxCell id="ebWgYVlHbPhllgyKeteg-77" value="static createSystemContext(ActivityThread mainThread):ContextImpl" style="text;strokeColor=none;fillColor=none;align=left;verticalAlign=top;spacingLeft=4;spacingRight=4;overflow=hidden;rotatable=0;points=[[0,0.5],[1,0.5]];portConstraint=eastwest;whiteSpace=wrap;html=1;" vertex="1" parent="ebWgYVlHbPhllgyKeteg-13">
          <mxGeometry y="447" width="950" height="26" as="geometry" />
        </mxCell>
        <mxCell id="ebWgYVlHbPhllgyKeteg-76" value="static createSystemUiContext(ContextImpl systemContext, int displayId):ContextImpl" style="text;strokeColor=none;fillColor=none;align=left;verticalAlign=top;spacingLeft=4;spacingRight=4;overflow=hidden;rotatable=0;points=[[0,0.5],[1,0.5]];portConstraint=eastwest;whiteSpace=wrap;html=1;" vertex="1" parent="ebWgYVlHbPhllgyKeteg-13">
          <mxGeometry y="473" width="950" height="26" as="geometry" />
        </mxCell>
        <mxCell id="ebWgYVlHbPhllgyKeteg-75" value="static createAppContext(ActivityThread mainThread, LoadedApk packageInfo):ContextImpl" style="text;strokeColor=none;fillColor=none;align=left;verticalAlign=top;spacingLeft=4;spacingRight=4;overflow=hidden;rotatable=0;points=[[0,0.5],[1,0.5]];portConstraint=eastwest;whiteSpace=wrap;html=1;" vertex="1" parent="ebWgYVlHbPhllgyKeteg-13">
          <mxGeometry y="499" width="950" height="26" as="geometry" />
        </mxCell>
        <mxCell id="ebWgYVlHbPhllgyKeteg-79" value="&lt;div&gt;static createAppContext(ActivityThread mainThread, LoadedApk packageInfo,&lt;span style=&quot;background-color: initial;&quot;&gt;String opPackageName)&lt;/span&gt;&lt;/div&gt;" style="text;strokeColor=none;fillColor=none;align=left;verticalAlign=top;spacingLeft=4;spacingRight=4;overflow=hidden;rotatable=0;points=[[0,0.5],[1,0.5]];portConstraint=eastwest;whiteSpace=wrap;html=1;" vertex="1" parent="ebWgYVlHbPhllgyKeteg-13">
          <mxGeometry y="525" width="950" height="26" as="geometry" />
        </mxCell>
        <mxCell id="ebWgYVlHbPhllgyKeteg-80" value="&lt;div&gt;static createActivityContext(ActivityThread mainThread,&lt;span style=&quot;background-color: initial;&quot;&gt;LoadedApk packageInfo, ActivityInfo activityInfo, IBinder activityToken, int displayId,&lt;/span&gt;&lt;span style=&quot;background-color: initial;&quot;&gt;Configuration overrideConfiguration)&lt;/span&gt;&lt;/div&gt;" style="text;strokeColor=none;fillColor=none;align=left;verticalAlign=top;spacingLeft=4;spacingRight=4;overflow=hidden;rotatable=0;points=[[0,0.5],[1,0.5]];portConstraint=eastwest;whiteSpace=wrap;html=1;" vertex="1" parent="ebWgYVlHbPhllgyKeteg-13">
          <mxGeometry y="551" width="950" height="26" as="geometry" />
        </mxCell>
        <mxCell id="ebWgYVlHbPhllgyKeteg-55" style="edgeStyle=orthogonalEdgeStyle;rounded=0;orthogonalLoop=1;jettySize=auto;html=1;exitX=0.5;exitY=0;exitDx=0;exitDy=0;" edge="1" parent="1" source="ebWgYVlHbPhllgyKeteg-17" target="ebWgYVlHbPhllgyKeteg-9">
          <mxGeometry relative="1" as="geometry" />
        </mxCell>
        <mxCell id="ebWgYVlHbPhllgyKeteg-17" value="Activity" style="swimlane;fontStyle=1;align=center;verticalAlign=top;childLayout=stackLayout;horizontal=1;startSize=26;horizontalStack=0;resizeParent=1;resizeParentMax=0;resizeLast=0;collapsible=1;marginBottom=0;whiteSpace=wrap;html=1;" vertex="1" parent="1">
          <mxGeometry x="75" y="840" width="160" height="112" as="geometry" />
        </mxCell>
        <mxCell id="ebWgYVlHbPhllgyKeteg-18" value="mEmbeddedID:String" style="text;strokeColor=none;fillColor=none;align=left;verticalAlign=top;spacingLeft=4;spacingRight=4;overflow=hidden;rotatable=0;points=[[0,0.5],[1,0.5]];portConstraint=eastwest;whiteSpace=wrap;html=1;" vertex="1" parent="ebWgYVlHbPhllgyKeteg-17">
          <mxGeometry y="26" width="160" height="26" as="geometry" />
        </mxCell>
        <mxCell id="ebWgYVlHbPhllgyKeteg-113" value="mToken:IBinder" style="text;strokeColor=none;fillColor=none;align=left;verticalAlign=top;spacingLeft=4;spacingRight=4;overflow=hidden;rotatable=0;points=[[0,0.5],[1,0.5]];portConstraint=eastwest;whiteSpace=wrap;html=1;" vertex="1" parent="ebWgYVlHbPhllgyKeteg-17">
          <mxGeometry y="52" width="160" height="26" as="geometry" />
        </mxCell>
        <mxCell id="ebWgYVlHbPhllgyKeteg-19" value="" style="line;strokeWidth=1;fillColor=none;align=left;verticalAlign=middle;spacingTop=-1;spacingLeft=3;spacingRight=3;rotatable=0;labelPosition=right;points=[];portConstraint=eastwest;strokeColor=inherit;" vertex="1" parent="ebWgYVlHbPhllgyKeteg-17">
          <mxGeometry y="78" width="160" height="8" as="geometry" />
        </mxCell>
        <mxCell id="ebWgYVlHbPhllgyKeteg-20" value="+ method(type): type" style="text;strokeColor=none;fillColor=none;align=left;verticalAlign=top;spacingLeft=4;spacingRight=4;overflow=hidden;rotatable=0;points=[[0,0.5],[1,0.5]];portConstraint=eastwest;whiteSpace=wrap;html=1;" vertex="1" parent="ebWgYVlHbPhllgyKeteg-17">
          <mxGeometry y="86" width="160" height="26" as="geometry" />
        </mxCell>
        <mxCell id="ebWgYVlHbPhllgyKeteg-49" style="edgeStyle=orthogonalEdgeStyle;rounded=0;orthogonalLoop=1;jettySize=auto;html=1;exitX=0.5;exitY=0;exitDx=0;exitDy=0;" edge="1" parent="1" source="ebWgYVlHbPhllgyKeteg-21" target="ebWgYVlHbPhllgyKeteg-5">
          <mxGeometry relative="1" as="geometry">
            <Array as="points">
              <mxPoint x="600" y="840" />
              <mxPoint x="600" y="750" />
              <mxPoint x="290" y="750" />
            </Array>
          </mxGeometry>
        </mxCell>
        <mxCell id="ebWgYVlHbPhllgyKeteg-21" value="Service" style="swimlane;fontStyle=1;align=center;verticalAlign=top;childLayout=stackLayout;horizontal=1;startSize=26;horizontalStack=0;resizeParent=1;resizeParentMax=0;resizeLast=0;collapsible=1;marginBottom=0;whiteSpace=wrap;html=1;" vertex="1" parent="1">
          <mxGeometry x="470" y="840" width="160" height="86" as="geometry" />
        </mxCell>
        <mxCell id="ebWgYVlHbPhllgyKeteg-22" value="+ field: type" style="text;strokeColor=none;fillColor=none;align=left;verticalAlign=top;spacingLeft=4;spacingRight=4;overflow=hidden;rotatable=0;points=[[0,0.5],[1,0.5]];portConstraint=eastwest;whiteSpace=wrap;html=1;" vertex="1" parent="ebWgYVlHbPhllgyKeteg-21">
          <mxGeometry y="26" width="160" height="26" as="geometry" />
        </mxCell>
        <mxCell id="ebWgYVlHbPhllgyKeteg-23" value="" style="line;strokeWidth=1;fillColor=none;align=left;verticalAlign=middle;spacingTop=-1;spacingLeft=3;spacingRight=3;rotatable=0;labelPosition=right;points=[];portConstraint=eastwest;strokeColor=inherit;" vertex="1" parent="ebWgYVlHbPhllgyKeteg-21">
          <mxGeometry y="52" width="160" height="8" as="geometry" />
        </mxCell>
        <mxCell id="ebWgYVlHbPhllgyKeteg-24" value="+ method(type): type" style="text;strokeColor=none;fillColor=none;align=left;verticalAlign=top;spacingLeft=4;spacingRight=4;overflow=hidden;rotatable=0;points=[[0,0.5],[1,0.5]];portConstraint=eastwest;whiteSpace=wrap;html=1;" vertex="1" parent="ebWgYVlHbPhllgyKeteg-21">
          <mxGeometry y="60" width="160" height="26" as="geometry" />
        </mxCell>
        <mxCell id="ebWgYVlHbPhllgyKeteg-48" style="edgeStyle=orthogonalEdgeStyle;rounded=0;orthogonalLoop=1;jettySize=auto;html=1;exitX=0.5;exitY=0;exitDx=0;exitDy=0;" edge="1" parent="1" source="ebWgYVlHbPhllgyKeteg-25" target="ebWgYVlHbPhllgyKeteg-5">
          <mxGeometry relative="1" as="geometry">
            <Array as="points">
              <mxPoint x="360" y="750" />
              <mxPoint x="290" y="750" />
            </Array>
          </mxGeometry>
        </mxCell>
        <mxCell id="ebWgYVlHbPhllgyKeteg-25" value="Application" style="swimlane;fontStyle=1;align=center;verticalAlign=top;childLayout=stackLayout;horizontal=1;startSize=26;horizontalStack=0;resizeParent=1;resizeParentMax=0;resizeLast=0;collapsible=1;marginBottom=0;whiteSpace=wrap;html=1;" vertex="1" parent="1">
          <mxGeometry x="280" y="840" width="160" height="86" as="geometry" />
        </mxCell>
        <mxCell id="ebWgYVlHbPhllgyKeteg-26" value="+ field: type" style="text;strokeColor=none;fillColor=none;align=left;verticalAlign=top;spacingLeft=4;spacingRight=4;overflow=hidden;rotatable=0;points=[[0,0.5],[1,0.5]];portConstraint=eastwest;whiteSpace=wrap;html=1;" vertex="1" parent="ebWgYVlHbPhllgyKeteg-25">
          <mxGeometry y="26" width="160" height="26" as="geometry" />
        </mxCell>
        <mxCell id="ebWgYVlHbPhllgyKeteg-27" value="" style="line;strokeWidth=1;fillColor=none;align=left;verticalAlign=middle;spacingTop=-1;spacingLeft=3;spacingRight=3;rotatable=0;labelPosition=right;points=[];portConstraint=eastwest;strokeColor=inherit;" vertex="1" parent="ebWgYVlHbPhllgyKeteg-25">
          <mxGeometry y="52" width="160" height="8" as="geometry" />
        </mxCell>
        <mxCell id="ebWgYVlHbPhllgyKeteg-28" value="+ method(type): type" style="text;strokeColor=none;fillColor=none;align=left;verticalAlign=top;spacingLeft=4;spacingRight=4;overflow=hidden;rotatable=0;points=[[0,0.5],[1,0.5]];portConstraint=eastwest;whiteSpace=wrap;html=1;" vertex="1" parent="ebWgYVlHbPhllgyKeteg-25">
          <mxGeometry y="60" width="160" height="26" as="geometry" />
        </mxCell>
        <mxCell id="ebWgYVlHbPhllgyKeteg-53" value="1" style="endArrow=open;html=1;endSize=12;startArrow=diamondThin;startSize=14;startFill=1;edgeStyle=orthogonalEdgeStyle;align=left;verticalAlign=bottom;rounded=0;exitX=0;exitY=0.036;exitDx=0;exitDy=0;exitPerimeter=0;entryX=1.006;entryY=0.163;entryDx=0;entryDy=0;entryPerimeter=0;" edge="1" parent="1" source="ebWgYVlHbPhllgyKeteg-13" target="ebWgYVlHbPhllgyKeteg-5">
          <mxGeometry x="-1" y="3" relative="1" as="geometry">
            <mxPoint x="340" y="380" as="sourcePoint" />
            <mxPoint x="380" y="147" as="targetPoint" />
          </mxGeometry>
        </mxCell>
        <mxCell id="ebWgYVlHbPhllgyKeteg-58" value="mBase" style="edgeLabel;html=1;align=center;verticalAlign=middle;resizable=0;points=[];" vertex="1" connectable="0" parent="ebWgYVlHbPhllgyKeteg-53">
          <mxGeometry x="0.2446" y="1" relative="1" as="geometry">
            <mxPoint x="1" as="offset" />
          </mxGeometry>
        </mxCell>
        <mxCell id="ebWgYVlHbPhllgyKeteg-81" value="ActivityThread" style="swimlane;fontStyle=1;align=center;verticalAlign=top;childLayout=stackLayout;horizontal=1;startSize=26;horizontalStack=0;resizeParent=1;resizeParentMax=0;resizeLast=0;collapsible=1;marginBottom=0;whiteSpace=wrap;html=1;" vertex="1" parent="1">
          <mxGeometry x="62.5" y="1040" width="295" height="138" as="geometry" />
        </mxCell>
        <mxCell id="ebWgYVlHbPhllgyKeteg-82" value="sCurrentActivityThread:ActivityThread" style="text;strokeColor=none;fillColor=none;align=left;verticalAlign=top;spacingLeft=4;spacingRight=4;overflow=hidden;rotatable=0;points=[[0,0.5],[1,0.5]];portConstraint=eastwest;whiteSpace=wrap;html=1;" vertex="1" parent="ebWgYVlHbPhllgyKeteg-81">
          <mxGeometry y="26" width="295" height="26" as="geometry" />
        </mxCell>
        <mxCell id="ebWgYVlHbPhllgyKeteg-86" value="mConfigurationController:" style="text;strokeColor=none;fillColor=none;align=left;verticalAlign=top;spacingLeft=4;spacingRight=4;overflow=hidden;rotatable=0;points=[[0,0.5],[1,0.5]];portConstraint=eastwest;whiteSpace=wrap;html=1;" vertex="1" parent="ebWgYVlHbPhllgyKeteg-81">
          <mxGeometry y="52" width="295" height="26" as="geometry" />
        </mxCell>
        <mxCell id="ebWgYVlHbPhllgyKeteg-83" value="" style="line;strokeWidth=1;fillColor=none;align=left;verticalAlign=middle;spacingTop=-1;spacingLeft=3;spacingRight=3;rotatable=0;labelPosition=right;points=[];portConstraint=eastwest;strokeColor=inherit;" vertex="1" parent="ebWgYVlHbPhllgyKeteg-81">
          <mxGeometry y="78" width="295" height="8" as="geometry" />
        </mxCell>
        <mxCell id="ebWgYVlHbPhllgyKeteg-84" value="main(String[] args)" style="text;strokeColor=none;fillColor=none;align=left;verticalAlign=top;spacingLeft=4;spacingRight=4;overflow=hidden;rotatable=0;points=[[0,0.5],[1,0.5]];portConstraint=eastwest;whiteSpace=wrap;html=1;" vertex="1" parent="ebWgYVlHbPhllgyKeteg-81">
          <mxGeometry y="86" width="295" height="26" as="geometry" />
        </mxCell>
        <mxCell id="ebWgYVlHbPhllgyKeteg-85" value="attach(boolean system, long startSeq)" style="text;strokeColor=none;fillColor=none;align=left;verticalAlign=top;spacingLeft=4;spacingRight=4;overflow=hidden;rotatable=0;points=[[0,0.5],[1,0.5]];portConstraint=eastwest;whiteSpace=wrap;html=1;" vertex="1" parent="ebWgYVlHbPhllgyKeteg-81">
          <mxGeometry y="112" width="295" height="26" as="geometry" />
        </mxCell>
        <mxCell id="ebWgYVlHbPhllgyKeteg-89" value="Activity" style="shape=umlLifeline;perimeter=lifelinePerimeter;whiteSpace=wrap;html=1;container=1;dropTarget=0;collapsible=0;recursiveResize=0;outlineConnect=0;portConstraint=eastwest;newEdgeStyle={&quot;edgeStyle&quot;:&quot;elbowEdgeStyle&quot;,&quot;elbow&quot;:&quot;vertical&quot;,&quot;curved&quot;:0,&quot;rounded&quot;:0};" vertex="1" parent="1">
          <mxGeometry x="170" y="2030" width="100" height="300" as="geometry" />
        </mxCell>
        <mxCell id="ebWgYVlHbPhllgyKeteg-91" value="" style="html=1;points=[];perimeter=orthogonalPerimeter;outlineConnect=0;targetShapes=umlLifeline;portConstraint=eastwest;newEdgeStyle={&quot;edgeStyle&quot;:&quot;elbowEdgeStyle&quot;,&quot;elbow&quot;:&quot;vertical&quot;,&quot;curved&quot;:0,&quot;rounded&quot;:0};" vertex="1" parent="ebWgYVlHbPhllgyKeteg-89">
          <mxGeometry x="45" y="80" width="10" height="40" as="geometry" />
        </mxCell>
        <mxCell id="ebWgYVlHbPhllgyKeteg-92" value="startActivityForResult" style="html=1;align=left;spacingLeft=2;endArrow=block;rounded=0;edgeStyle=orthogonalEdgeStyle;curved=0;rounded=0;" edge="1" target="ebWgYVlHbPhllgyKeteg-91" parent="ebWgYVlHbPhllgyKeteg-89">
          <mxGeometry relative="1" as="geometry">
            <mxPoint x="50" y="60" as="sourcePoint" />
            <Array as="points">
              <mxPoint x="80" y="90" />
            </Array>
          </mxGeometry>
        </mxCell>
        <mxCell id="ebWgYVlHbPhllgyKeteg-90" value="ContextImpl" style="shape=umlLifeline;perimeter=lifelinePerimeter;whiteSpace=wrap;html=1;container=1;dropTarget=0;collapsible=0;recursiveResize=0;outlineConnect=0;portConstraint=eastwest;newEdgeStyle={&quot;edgeStyle&quot;:&quot;elbowEdgeStyle&quot;,&quot;elbow&quot;:&quot;vertical&quot;,&quot;curved&quot;:0,&quot;rounded&quot;:0};" vertex="1" parent="1">
          <mxGeometry x="470" y="2030" width="100" height="300" as="geometry" />
        </mxCell>
        <mxCell id="ebWgYVlHbPhllgyKeteg-93" value="" style="endArrow=open;endFill=1;endSize=12;html=1;rounded=0;" edge="1" parent="1">
          <mxGeometry width="160" relative="1" as="geometry">
            <mxPoint x="60" y="2090" as="sourcePoint" />
            <mxPoint x="220" y="2090" as="targetPoint" />
          </mxGeometry>
        </mxCell>
        <mxCell id="ebWgYVlHbPhllgyKeteg-94" value="startActivity" style="edgeLabel;html=1;align=center;verticalAlign=middle;resizable=0;points=[];" vertex="1" connectable="0" parent="ebWgYVlHbPhllgyKeteg-93">
          <mxGeometry x="-0.325" relative="1" as="geometry">
            <mxPoint as="offset" />
          </mxGeometry>
        </mxCell>
        <mxCell id="ebWgYVlHbPhllgyKeteg-95" value="Instrumentation" style="shape=umlLifeline;perimeter=lifelinePerimeter;whiteSpace=wrap;html=1;container=1;dropTarget=0;collapsible=0;recursiveResize=0;outlineConnect=0;portConstraint=eastwest;newEdgeStyle={&quot;edgeStyle&quot;:&quot;elbowEdgeStyle&quot;,&quot;elbow&quot;:&quot;vertical&quot;,&quot;curved&quot;:0,&quot;rounded&quot;:0};" vertex="1" parent="1">
          <mxGeometry x="650" y="2030" width="100" height="300" as="geometry" />
        </mxCell>
        <mxCell id="ebWgYVlHbPhllgyKeteg-96" style="edgeStyle=elbowEdgeStyle;rounded=0;orthogonalLoop=1;jettySize=auto;html=1;elbow=vertical;curved=0;" edge="1" parent="1" source="ebWgYVlHbPhllgyKeteg-91" target="ebWgYVlHbPhllgyKeteg-95">
          <mxGeometry relative="1" as="geometry" />
        </mxCell>
        <mxCell id="ebWgYVlHbPhllgyKeteg-97" value="execStartActivity(&lt;span style=&quot;border-color: var(--border-color); font-size: 12px; text-align: left; background-color: initial;&quot;&gt;&amp;nbsp;Context who, IBinder contextThread, IBinder token,&amp;nbsp;&lt;b style=&quot;border-color: var(--border-color);&quot;&gt;&lt;font style=&quot;border-color: var(--border-color);&quot; color=&quot;#ff0000&quot;&gt;Activity target&lt;/font&gt;&lt;/b&gt;,&lt;/span&gt;&lt;span style=&quot;border-color: var(--border-color); font-size: 12px; text-align: left; background-color: initial;&quot;&gt;&amp;nbsp;Intent intent, int requestCode, Bundle options)&lt;/span&gt;" style="edgeLabel;html=1;align=center;verticalAlign=middle;resizable=0;points=[];" vertex="1" connectable="0" parent="ebWgYVlHbPhllgyKeteg-96">
          <mxGeometry x="-0.1865" y="1" relative="1" as="geometry">
            <mxPoint x="32" y="11" as="offset" />
          </mxGeometry>
        </mxCell>
        <mxCell id="ebWgYVlHbPhllgyKeteg-98" value="Instrumentation" style="swimlane;fontStyle=1;align=center;verticalAlign=top;childLayout=stackLayout;horizontal=1;startSize=26;horizontalStack=0;resizeParent=1;resizeParentMax=0;resizeLast=0;collapsible=1;marginBottom=0;whiteSpace=wrap;html=1;" vertex="1" parent="1">
          <mxGeometry x="440" y="1040" width="1010" height="190" as="geometry" />
        </mxCell>
        <mxCell id="ebWgYVlHbPhllgyKeteg-99" value="+ field: type" style="text;strokeColor=none;fillColor=none;align=left;verticalAlign=top;spacingLeft=4;spacingRight=4;overflow=hidden;rotatable=0;points=[[0,0.5],[1,0.5]];portConstraint=eastwest;whiteSpace=wrap;html=1;" vertex="1" parent="ebWgYVlHbPhllgyKeteg-98">
          <mxGeometry y="26" width="1010" height="26" as="geometry" />
        </mxCell>
        <mxCell id="ebWgYVlHbPhllgyKeteg-100" value="" style="line;strokeWidth=1;fillColor=none;align=left;verticalAlign=middle;spacingTop=-1;spacingLeft=3;spacingRight=3;rotatable=0;labelPosition=right;points=[];portConstraint=eastwest;strokeColor=inherit;" vertex="1" parent="ebWgYVlHbPhllgyKeteg-98">
          <mxGeometry y="52" width="1010" height="8" as="geometry" />
        </mxCell>
        <mxCell id="ebWgYVlHbPhllgyKeteg-101" value="&lt;div&gt;execStartActivity(&lt;span style=&quot;background-color: initial;&quot;&gt;&amp;nbsp;Context who, IBinder contextThread, IBinder token, &lt;b&gt;&lt;font color=&quot;#ff0000&quot;&gt;Activity target&lt;/font&gt;&lt;/b&gt;,&lt;/span&gt;&lt;span style=&quot;background-color: initial;&quot;&gt;&amp;nbsp;Intent intent, int requestCode, Bundle options)&lt;/span&gt;&lt;/div&gt;" style="text;strokeColor=none;fillColor=none;align=left;verticalAlign=top;spacingLeft=4;spacingRight=4;overflow=hidden;rotatable=0;points=[[0,0.5],[1,0.5]];portConstraint=eastwest;whiteSpace=wrap;html=1;" vertex="1" parent="ebWgYVlHbPhllgyKeteg-98">
          <mxGeometry y="60" width="1010" height="26" as="geometry" />
        </mxCell>
        <mxCell id="ebWgYVlHbPhllgyKeteg-102" value="&lt;div&gt;execStartActivity(&lt;span style=&quot;background-color: initial;&quot;&gt;&amp;nbsp;Context who, IBinder contextThread, IBinder token, &lt;b&gt;&lt;font color=&quot;#ff0000&quot;&gt;String target&lt;/font&gt;&lt;/b&gt;,&lt;/span&gt;&lt;span style=&quot;background-color: initial;&quot;&gt;&amp;nbsp;Intent intent, int requestCode, Bundle options)&lt;/span&gt;&lt;/div&gt;" style="text;strokeColor=none;fillColor=none;align=left;verticalAlign=top;spacingLeft=4;spacingRight=4;overflow=hidden;rotatable=0;points=[[0,0.5],[1,0.5]];portConstraint=eastwest;whiteSpace=wrap;html=1;" vertex="1" parent="ebWgYVlHbPhllgyKeteg-98">
          <mxGeometry y="86" width="1010" height="26" as="geometry" />
        </mxCell>
        <mxCell id="ebWgYVlHbPhllgyKeteg-103" value="&lt;div&gt;execStartActivity(&lt;span style=&quot;background-color: initial;&quot;&gt;Context &lt;b&gt;who&lt;/b&gt;, IBinder &lt;b&gt;contextThread&lt;/b&gt;, IBinder token, &lt;b&gt;&lt;font color=&quot;#ff0000&quot;&gt;String resultWho&lt;/font&gt;&lt;/b&gt;,&lt;/span&gt;&lt;span style=&quot;background-color: initial;&quot;&gt;Intent intent, int requestCode, Bundle options, UserHandle user)&lt;/span&gt;&lt;/div&gt;" style="text;strokeColor=none;fillColor=none;align=left;verticalAlign=top;spacingLeft=4;spacingRight=4;overflow=hidden;rotatable=0;points=[[0,0.5],[1,0.5]];portConstraint=eastwest;whiteSpace=wrap;html=1;" vertex="1" parent="ebWgYVlHbPhllgyKeteg-98">
          <mxGeometry y="112" width="1010" height="26" as="geometry" />
        </mxCell>
        <mxCell id="ebWgYVlHbPhllgyKeteg-104" value="&lt;div&gt;execStartActivityAsCaller(&lt;span style=&quot;background-color: initial;&quot;&gt;Context who, IBinder contextThread, IBinder token, &lt;b&gt;&lt;font color=&quot;#ff0000&quot;&gt;Activity target&lt;/font&gt;&lt;/b&gt;,&lt;/span&gt;&lt;span style=&quot;background-color: initial;&quot;&gt;Intent intent, int requestCode, Bundle options,&lt;/span&gt;&lt;span style=&quot;background-color: initial;&quot;&gt;boolean ignoreTargetSecurity, int userId)&lt;/span&gt;&lt;/div&gt;" style="text;strokeColor=none;fillColor=none;align=left;verticalAlign=top;spacingLeft=4;spacingRight=4;overflow=hidden;rotatable=0;points=[[0,0.5],[1,0.5]];portConstraint=eastwest;whiteSpace=wrap;html=1;" vertex="1" parent="ebWgYVlHbPhllgyKeteg-98">
          <mxGeometry y="138" width="1010" height="26" as="geometry" />
        </mxCell>
        <mxCell id="ebWgYVlHbPhllgyKeteg-105" value="&lt;div&gt;execStartActivityFromAppTask(&lt;span style=&quot;background-color: initial;&quot;&gt;Context who, IBinder contextThread, IAppTask appTask,&lt;/span&gt;&lt;span style=&quot;background-color: initial;&quot;&gt;Intent intent, Bundle options)&lt;/span&gt;&lt;/div&gt;" style="text;strokeColor=none;fillColor=none;align=left;verticalAlign=top;spacingLeft=4;spacingRight=4;overflow=hidden;rotatable=0;points=[[0,0.5],[1,0.5]];portConstraint=eastwest;whiteSpace=wrap;html=1;" vertex="1" parent="ebWgYVlHbPhllgyKeteg-98">
          <mxGeometry y="164" width="1010" height="26" as="geometry" />
        </mxCell>
        <mxCell id="ebWgYVlHbPhllgyKeteg-106" value="" style="endArrow=open;endFill=1;endSize=12;html=1;rounded=0;" edge="1" parent="1" target="ebWgYVlHbPhllgyKeteg-90">
          <mxGeometry width="160" relative="1" as="geometry">
            <mxPoint x="390" y="2100" as="sourcePoint" />
            <mxPoint x="515" y="2210" as="targetPoint" />
            <Array as="points">
              <mxPoint x="500" y="2100" />
            </Array>
          </mxGeometry>
        </mxCell>
        <mxCell id="ebWgYVlHbPhllgyKeteg-107" value="startActivity" style="edgeLabel;html=1;align=center;verticalAlign=middle;resizable=0;points=[];" vertex="1" connectable="0" parent="ebWgYVlHbPhllgyKeteg-106">
          <mxGeometry x="-0.325" relative="1" as="geometry">
            <mxPoint as="offset" />
          </mxGeometry>
        </mxCell>
        <mxCell id="ebWgYVlHbPhllgyKeteg-109" value="IActivityManager" style="swimlane;fontStyle=1;align=center;verticalAlign=top;childLayout=stackLayout;horizontal=1;startSize=26;horizontalStack=0;resizeParent=1;resizeParentMax=0;resizeLast=0;collapsible=1;marginBottom=0;whiteSpace=wrap;html=1;" vertex="1" parent="1">
          <mxGeometry x="50" y="1260" width="1220" height="86" as="geometry" />
        </mxCell>
        <mxCell id="ebWgYVlHbPhllgyKeteg-110" value="+ field: type" style="text;strokeColor=none;fillColor=none;align=left;verticalAlign=top;spacingLeft=4;spacingRight=4;overflow=hidden;rotatable=0;points=[[0,0.5],[1,0.5]];portConstraint=eastwest;whiteSpace=wrap;html=1;" vertex="1" parent="ebWgYVlHbPhllgyKeteg-109">
          <mxGeometry y="26" width="1220" height="26" as="geometry" />
        </mxCell>
        <mxCell id="ebWgYVlHbPhllgyKeteg-111" value="" style="line;strokeWidth=1;fillColor=none;align=left;verticalAlign=middle;spacingTop=-1;spacingLeft=3;spacingRight=3;rotatable=0;labelPosition=right;points=[];portConstraint=eastwest;strokeColor=inherit;" vertex="1" parent="ebWgYVlHbPhllgyKeteg-109">
          <mxGeometry y="52" width="1220" height="8" as="geometry" />
        </mxCell>
        <mxCell id="ebWgYVlHbPhllgyKeteg-112" value="&lt;div&gt;startActivity(IApplicationThread caller, String callingPackage, String callingFeatureId,Intent intent, String resolvedType, IBinder resultTo,String resultWho, int requestCode, int flags, ProfilerInfo profilerInfo, Bundle options)&lt;/div&gt;&lt;div&gt;&lt;br&gt;&lt;/div&gt;" style="text;strokeColor=none;fillColor=none;align=left;verticalAlign=top;spacingLeft=4;spacingRight=4;overflow=hidden;rotatable=0;points=[[0,0.5],[1,0.5]];portConstraint=eastwest;whiteSpace=wrap;html=1;" vertex="1" parent="ebWgYVlHbPhllgyKeteg-109">
          <mxGeometry y="60" width="1220" height="26" as="geometry" />
        </mxCell>
        <mxCell id="ebWgYVlHbPhllgyKeteg-114" value="ActivityTaskManagerService" style="swimlane;fontStyle=1;align=center;verticalAlign=top;childLayout=stackLayout;horizontal=1;startSize=26;horizontalStack=0;resizeParent=1;resizeParentMax=0;resizeLast=0;collapsible=1;marginBottom=0;whiteSpace=wrap;html=1;" vertex="1" parent="1">
          <mxGeometry x="50" y="1400" width="1520" height="320" as="geometry" />
        </mxCell>
        <mxCell id="ebWgYVlHbPhllgyKeteg-115" value="mRecentTasks:RecentTasks" style="text;strokeColor=none;fillColor=none;align=left;verticalAlign=top;spacingLeft=4;spacingRight=4;overflow=hidden;rotatable=0;points=[[0,0.5],[1,0.5]];portConstraint=eastwest;whiteSpace=wrap;html=1;" vertex="1" parent="ebWgYVlHbPhllgyKeteg-114">
          <mxGeometry y="26" width="1520" height="26" as="geometry" />
        </mxCell>
        <mxCell id="ebWgYVlHbPhllgyKeteg-120" value="mActivityStartController:ActivityStartController" style="text;strokeColor=none;fillColor=none;align=left;verticalAlign=top;spacingLeft=4;spacingRight=4;overflow=hidden;rotatable=0;points=[[0,0.5],[1,0.5]];portConstraint=eastwest;whiteSpace=wrap;html=1;" vertex="1" parent="ebWgYVlHbPhllgyKeteg-114">
          <mxGeometry y="52" width="1520" height="26" as="geometry" />
        </mxCell>
        <mxCell id="ebWgYVlHbPhllgyKeteg-157" value="mProcessNames:ProcessMap&amp;lt;WindowProcessController&amp;gt;" style="text;strokeColor=none;fillColor=none;align=left;verticalAlign=top;spacingLeft=4;spacingRight=4;overflow=hidden;rotatable=0;points=[[0,0.5],[1,0.5]];portConstraint=eastwest;whiteSpace=wrap;html=1;" vertex="1" parent="ebWgYVlHbPhllgyKeteg-114">
          <mxGeometry y="78" width="1520" height="26" as="geometry" />
        </mxCell>
        <mxCell id="ebWgYVlHbPhllgyKeteg-158" value="mProcessMap:WindowProcessControllerMap" style="text;strokeColor=none;fillColor=none;align=left;verticalAlign=top;spacingLeft=4;spacingRight=4;overflow=hidden;rotatable=0;points=[[0,0.5],[1,0.5]];portConstraint=eastwest;whiteSpace=wrap;html=1;" vertex="1" parent="ebWgYVlHbPhllgyKeteg-114">
          <mxGeometry y="104" width="1520" height="26" as="geometry" />
        </mxCell>
        <mxCell id="ebWgYVlHbPhllgyKeteg-162" value="mTaskSupervisor:ActivityTaskSupervisor" style="text;strokeColor=none;fillColor=none;align=left;verticalAlign=top;spacingLeft=4;spacingRight=4;overflow=hidden;rotatable=0;points=[[0,0.5],[1,0.5]];portConstraint=eastwest;whiteSpace=wrap;html=1;" vertex="1" parent="ebWgYVlHbPhllgyKeteg-114">
          <mxGeometry y="130" width="1520" height="26" as="geometry" />
        </mxCell>
        <mxCell id="ebWgYVlHbPhllgyKeteg-161" value="mActivityClientController:ActivityClientController" style="text;strokeColor=none;fillColor=none;align=left;verticalAlign=top;spacingLeft=4;spacingRight=4;overflow=hidden;rotatable=0;points=[[0,0.5],[1,0.5]];portConstraint=eastwest;whiteSpace=wrap;html=1;" vertex="1" parent="ebWgYVlHbPhllgyKeteg-114">
          <mxGeometry y="156" width="1520" height="26" as="geometry" />
        </mxCell>
        <mxCell id="ebWgYVlHbPhllgyKeteg-160" value="mRootWindowContainer:RootWindowContainer" style="text;strokeColor=none;fillColor=none;align=left;verticalAlign=top;spacingLeft=4;spacingRight=4;overflow=hidden;rotatable=0;points=[[0,0.5],[1,0.5]];portConstraint=eastwest;whiteSpace=wrap;html=1;" vertex="1" parent="ebWgYVlHbPhllgyKeteg-114">
          <mxGeometry y="182" width="1520" height="26" as="geometry" />
        </mxCell>
        <mxCell id="ebWgYVlHbPhllgyKeteg-159" value="mWindowManager:WindowManagerService" style="text;strokeColor=none;fillColor=none;align=left;verticalAlign=top;spacingLeft=4;spacingRight=4;overflow=hidden;rotatable=0;points=[[0,0.5],[1,0.5]];portConstraint=eastwest;whiteSpace=wrap;html=1;" vertex="1" parent="ebWgYVlHbPhllgyKeteg-114">
          <mxGeometry y="208" width="1520" height="26" as="geometry" />
        </mxCell>
        <mxCell id="ebWgYVlHbPhllgyKeteg-116" value="" style="line;strokeWidth=1;fillColor=none;align=left;verticalAlign=middle;spacingTop=-1;spacingLeft=3;spacingRight=3;rotatable=0;labelPosition=right;points=[];portConstraint=eastwest;strokeColor=inherit;" vertex="1" parent="ebWgYVlHbPhllgyKeteg-114">
          <mxGeometry y="234" width="1520" height="8" as="geometry" />
        </mxCell>
        <mxCell id="ebWgYVlHbPhllgyKeteg-117" value="&lt;div&gt;startActivity(IApplicationThread caller, String callingPackage,&lt;span style=&quot;background-color: initial;&quot;&gt;String callingFeatureId, Intent intent, String resolvedType, IBinder resultTo,&lt;/span&gt;&lt;span style=&quot;background-color: initial;&quot;&gt;String resultWho, int requestCode, int startFlags, ProfilerInfo profilerInfo,&lt;/span&gt;&lt;span style=&quot;background-color: initial;&quot;&gt;Bundle bOptions)&amp;nbsp;&lt;/span&gt;&lt;/div&gt;" style="text;strokeColor=none;fillColor=none;align=left;verticalAlign=top;spacingLeft=4;spacingRight=4;overflow=hidden;rotatable=0;points=[[0,0.5],[1,0.5]];portConstraint=eastwest;whiteSpace=wrap;html=1;" vertex="1" parent="ebWgYVlHbPhllgyKeteg-114">
          <mxGeometry y="242" width="1520" height="26" as="geometry" />
        </mxCell>
        <mxCell id="ebWgYVlHbPhllgyKeteg-118" value="&lt;div&gt;startActivityAsUser(IApplicationThread caller, String callingPackage,&lt;span style=&quot;background-color: initial;&quot;&gt;String callingFeatureId, Intent intent, String resolvedType,&lt;/span&gt;&lt;span style=&quot;background-color: initial;&quot;&gt;IBinder resultTo, String resultWho, int requestCode, int startFlags,&lt;/span&gt;&lt;span style=&quot;background-color: initial;&quot;&gt;ProfilerInfo profilerInfo, Bundle bOptions, int userId, boolean validateIncomingUser)&lt;/span&gt;&lt;/div&gt;" style="text;strokeColor=none;fillColor=none;align=left;verticalAlign=top;spacingLeft=4;spacingRight=4;overflow=hidden;rotatable=0;points=[[0,0.5],[1,0.5]];portConstraint=eastwest;whiteSpace=wrap;html=1;" vertex="1" parent="ebWgYVlHbPhllgyKeteg-114">
          <mxGeometry y="268" width="1520" height="26" as="geometry" />
        </mxCell>
        <mxCell id="ebWgYVlHbPhllgyKeteg-119" value="getActivityStartController():ActivityStartController" style="text;strokeColor=none;fillColor=none;align=left;verticalAlign=top;spacingLeft=4;spacingRight=4;overflow=hidden;rotatable=0;points=[[0,0.5],[1,0.5]];portConstraint=eastwest;whiteSpace=wrap;html=1;" vertex="1" parent="ebWgYVlHbPhllgyKeteg-114">
          <mxGeometry y="294" width="1520" height="26" as="geometry" />
        </mxCell>
        <mxCell id="ebWgYVlHbPhllgyKeteg-121" value="ActivityStartController" style="swimlane;fontStyle=1;align=center;verticalAlign=top;childLayout=stackLayout;horizontal=1;startSize=26;horizontalStack=0;resizeParent=1;resizeParentMax=0;resizeLast=0;collapsible=1;marginBottom=0;whiteSpace=wrap;html=1;" vertex="1" parent="1">
          <mxGeometry x="260" y="1810" width="330" height="86" as="geometry" />
        </mxCell>
        <mxCell id="ebWgYVlHbPhllgyKeteg-122" value="mStarterPool:SynchronizedPool&amp;lt;ActivityStarter&amp;gt;" style="text;strokeColor=none;fillColor=none;align=left;verticalAlign=top;spacingLeft=4;spacingRight=4;overflow=hidden;rotatable=0;points=[[0,0.5],[1,0.5]];portConstraint=eastwest;whiteSpace=wrap;html=1;" vertex="1" parent="ebWgYVlHbPhllgyKeteg-121">
          <mxGeometry y="26" width="330" height="26" as="geometry" />
        </mxCell>
        <mxCell id="ebWgYVlHbPhllgyKeteg-123" value="" style="line;strokeWidth=1;fillColor=none;align=left;verticalAlign=middle;spacingTop=-1;spacingLeft=3;spacingRight=3;rotatable=0;labelPosition=right;points=[];portConstraint=eastwest;strokeColor=inherit;" vertex="1" parent="ebWgYVlHbPhllgyKeteg-121">
          <mxGeometry y="52" width="330" height="8" as="geometry" />
        </mxCell>
        <mxCell id="ebWgYVlHbPhllgyKeteg-124" value="+ method(type): type" style="text;strokeColor=none;fillColor=none;align=left;verticalAlign=top;spacingLeft=4;spacingRight=4;overflow=hidden;rotatable=0;points=[[0,0.5],[1,0.5]];portConstraint=eastwest;whiteSpace=wrap;html=1;" vertex="1" parent="ebWgYVlHbPhllgyKeteg-121">
          <mxGeometry y="60" width="330" height="26" as="geometry" />
        </mxCell>
        <mxCell id="ebWgYVlHbPhllgyKeteg-125" value="ActivityStarter" style="swimlane;fontStyle=1;align=center;verticalAlign=top;childLayout=stackLayout;horizontal=1;startSize=26;horizontalStack=0;resizeParent=1;resizeParentMax=0;resizeLast=0;collapsible=1;marginBottom=0;whiteSpace=wrap;html=1;" vertex="1" parent="1">
          <mxGeometry x="760" y="1790" width="290" height="216" as="geometry" />
        </mxCell>
        <mxCell id="ebWgYVlHbPhllgyKeteg-126" value="mService:ActivityTaskManagerService" style="text;strokeColor=none;fillColor=none;align=left;verticalAlign=top;spacingLeft=4;spacingRight=4;overflow=hidden;rotatable=0;points=[[0,0.5],[1,0.5]];portConstraint=eastwest;whiteSpace=wrap;html=1;" vertex="1" parent="ebWgYVlHbPhllgyKeteg-125">
          <mxGeometry y="26" width="290" height="26" as="geometry" />
        </mxCell>
        <mxCell id="ebWgYVlHbPhllgyKeteg-131" value="mRootWindowContainer:RootWindowContainer" style="text;strokeColor=none;fillColor=none;align=left;verticalAlign=top;spacingLeft=4;spacingRight=4;overflow=hidden;rotatable=0;points=[[0,0.5],[1,0.5]];portConstraint=eastwest;whiteSpace=wrap;html=1;" vertex="1" parent="ebWgYVlHbPhllgyKeteg-125">
          <mxGeometry y="52" width="290" height="26" as="geometry" />
        </mxCell>
        <mxCell id="ebWgYVlHbPhllgyKeteg-130" value="mSupervisor:ActivityTaskSupervisor" style="text;strokeColor=none;fillColor=none;align=left;verticalAlign=top;spacingLeft=4;spacingRight=4;overflow=hidden;rotatable=0;points=[[0,0.5],[1,0.5]];portConstraint=eastwest;whiteSpace=wrap;html=1;" vertex="1" parent="ebWgYVlHbPhllgyKeteg-125">
          <mxGeometry y="78" width="290" height="26" as="geometry" />
        </mxCell>
        <mxCell id="ebWgYVlHbPhllgyKeteg-129" value="mInterceptor:ActivityStartInterceptor" style="text;strokeColor=none;fillColor=none;align=left;verticalAlign=top;spacingLeft=4;spacingRight=4;overflow=hidden;rotatable=0;points=[[0,0.5],[1,0.5]];portConstraint=eastwest;whiteSpace=wrap;html=1;" vertex="1" parent="ebWgYVlHbPhllgyKeteg-125">
          <mxGeometry y="104" width="290" height="26" as="geometry" />
        </mxCell>
        <mxCell id="ebWgYVlHbPhllgyKeteg-132" value="mController:ActivityStartController" style="text;strokeColor=none;fillColor=none;align=left;verticalAlign=top;spacingLeft=4;spacingRight=4;overflow=hidden;rotatable=0;points=[[0,0.5],[1,0.5]];portConstraint=eastwest;whiteSpace=wrap;html=1;" vertex="1" parent="ebWgYVlHbPhllgyKeteg-125">
          <mxGeometry y="130" width="290" height="26" as="geometry" />
        </mxCell>
        <mxCell id="ebWgYVlHbPhllgyKeteg-133" value="mRequest:Request" style="text;strokeColor=none;fillColor=none;align=left;verticalAlign=top;spacingLeft=4;spacingRight=4;overflow=hidden;rotatable=0;points=[[0,0.5],[1,0.5]];portConstraint=eastwest;whiteSpace=wrap;html=1;" vertex="1" parent="ebWgYVlHbPhllgyKeteg-125">
          <mxGeometry y="156" width="290" height="26" as="geometry" />
        </mxCell>
        <mxCell id="ebWgYVlHbPhllgyKeteg-127" value="" style="line;strokeWidth=1;fillColor=none;align=left;verticalAlign=middle;spacingTop=-1;spacingLeft=3;spacingRight=3;rotatable=0;labelPosition=right;points=[];portConstraint=eastwest;strokeColor=inherit;" vertex="1" parent="ebWgYVlHbPhllgyKeteg-125">
          <mxGeometry y="182" width="290" height="8" as="geometry" />
        </mxCell>
        <mxCell id="ebWgYVlHbPhllgyKeteg-128" value="+ method(type): type" style="text;strokeColor=none;fillColor=none;align=left;verticalAlign=top;spacingLeft=4;spacingRight=4;overflow=hidden;rotatable=0;points=[[0,0.5],[1,0.5]];portConstraint=eastwest;whiteSpace=wrap;html=1;" vertex="1" parent="ebWgYVlHbPhllgyKeteg-125">
          <mxGeometry y="190" width="290" height="26" as="geometry" />
        </mxCell>
        <mxCell id="ebWgYVlHbPhllgyKeteg-134" value="&lt;b&gt;ActivityStarter.Request&lt;/b&gt;" style="swimlane;fontStyle=0;childLayout=stackLayout;horizontal=1;startSize=26;fillColor=none;horizontalStack=0;resizeParent=1;resizeParentMax=0;resizeLast=0;collapsible=1;marginBottom=0;whiteSpace=wrap;html=1;" vertex="1" parent="1">
          <mxGeometry x="1150" y="1810" width="440" height="494" as="geometry" />
        </mxCell>
        <mxCell id="ebWgYVlHbPhllgyKeteg-135" value="caller:IApplicationThread" style="text;strokeColor=none;fillColor=none;align=left;verticalAlign=top;spacingLeft=4;spacingRight=4;overflow=hidden;rotatable=0;points=[[0,0.5],[1,0.5]];portConstraint=eastwest;whiteSpace=wrap;html=1;" vertex="1" parent="ebWgYVlHbPhllgyKeteg-134">
          <mxGeometry y="26" width="440" height="26" as="geometry" />
        </mxCell>
        <mxCell id="ebWgYVlHbPhllgyKeteg-136" value="intent:Intent" style="text;strokeColor=none;fillColor=none;align=left;verticalAlign=top;spacingLeft=4;spacingRight=4;overflow=hidden;rotatable=0;points=[[0,0.5],[1,0.5]];portConstraint=eastwest;whiteSpace=wrap;html=1;" vertex="1" parent="ebWgYVlHbPhllgyKeteg-134">
          <mxGeometry y="52" width="440" height="26" as="geometry" />
        </mxCell>
        <mxCell id="ebWgYVlHbPhllgyKeteg-137" value="intentGrants:NeededUriGrants" style="text;strokeColor=none;fillColor=none;align=left;verticalAlign=top;spacingLeft=4;spacingRight=4;overflow=hidden;rotatable=0;points=[[0,0.5],[1,0.5]];portConstraint=eastwest;whiteSpace=wrap;html=1;" vertex="1" parent="ebWgYVlHbPhllgyKeteg-134">
          <mxGeometry y="78" width="440" height="26" as="geometry" />
        </mxCell>
        <mxCell id="ebWgYVlHbPhllgyKeteg-147" value="ephemeralIntent:Intent" style="text;strokeColor=none;fillColor=none;align=left;verticalAlign=top;spacingLeft=4;spacingRight=4;overflow=hidden;rotatable=0;points=[[0,0.5],[1,0.5]];portConstraint=eastwest;whiteSpace=wrap;html=1;" vertex="1" parent="ebWgYVlHbPhllgyKeteg-134">
          <mxGeometry y="104" width="440" height="26" as="geometry" />
        </mxCell>
        <mxCell id="ebWgYVlHbPhllgyKeteg-146" value="resolvedType:String" style="text;strokeColor=none;fillColor=none;align=left;verticalAlign=top;spacingLeft=4;spacingRight=4;overflow=hidden;rotatable=0;points=[[0,0.5],[1,0.5]];portConstraint=eastwest;whiteSpace=wrap;html=1;" vertex="1" parent="ebWgYVlHbPhllgyKeteg-134">
          <mxGeometry y="130" width="440" height="26" as="geometry" />
        </mxCell>
        <mxCell id="ebWgYVlHbPhllgyKeteg-145" value="activityInfo:ActivityInfo" style="text;strokeColor=none;fillColor=none;align=left;verticalAlign=top;spacingLeft=4;spacingRight=4;overflow=hidden;rotatable=0;points=[[0,0.5],[1,0.5]];portConstraint=eastwest;whiteSpace=wrap;html=1;" vertex="1" parent="ebWgYVlHbPhllgyKeteg-134">
          <mxGeometry y="156" width="440" height="26" as="geometry" />
        </mxCell>
        <mxCell id="ebWgYVlHbPhllgyKeteg-144" value="resolveInfo:ResolveInfo" style="text;strokeColor=none;fillColor=none;align=left;verticalAlign=top;spacingLeft=4;spacingRight=4;overflow=hidden;rotatable=0;points=[[0,0.5],[1,0.5]];portConstraint=eastwest;whiteSpace=wrap;html=1;" vertex="1" parent="ebWgYVlHbPhllgyKeteg-134">
          <mxGeometry y="182" width="440" height="26" as="geometry" />
        </mxCell>
        <mxCell id="ebWgYVlHbPhllgyKeteg-143" value="resultTo:IBinder" style="text;strokeColor=none;fillColor=none;align=left;verticalAlign=top;spacingLeft=4;spacingRight=4;overflow=hidden;rotatable=0;points=[[0,0.5],[1,0.5]];portConstraint=eastwest;whiteSpace=wrap;html=1;" vertex="1" parent="ebWgYVlHbPhllgyKeteg-134">
          <mxGeometry y="208" width="440" height="26" as="geometry" />
        </mxCell>
        <mxCell id="ebWgYVlHbPhllgyKeteg-142" value="resultWho:String" style="text;strokeColor=none;fillColor=none;align=left;verticalAlign=top;spacingLeft=4;spacingRight=4;overflow=hidden;rotatable=0;points=[[0,0.5],[1,0.5]];portConstraint=eastwest;whiteSpace=wrap;html=1;" vertex="1" parent="ebWgYVlHbPhllgyKeteg-134">
          <mxGeometry y="234" width="440" height="26" as="geometry" />
        </mxCell>
        <mxCell id="ebWgYVlHbPhllgyKeteg-141" value="requestCode:int" style="text;strokeColor=none;fillColor=none;align=left;verticalAlign=top;spacingLeft=4;spacingRight=4;overflow=hidden;rotatable=0;points=[[0,0.5],[1,0.5]];portConstraint=eastwest;whiteSpace=wrap;html=1;" vertex="1" parent="ebWgYVlHbPhllgyKeteg-134">
          <mxGeometry y="260" width="440" height="26" as="geometry" />
        </mxCell>
        <mxCell id="ebWgYVlHbPhllgyKeteg-140" value="callingPid:int" style="text;strokeColor=none;fillColor=none;align=left;verticalAlign=top;spacingLeft=4;spacingRight=4;overflow=hidden;rotatable=0;points=[[0,0.5],[1,0.5]];portConstraint=eastwest;whiteSpace=wrap;html=1;" vertex="1" parent="ebWgYVlHbPhllgyKeteg-134">
          <mxGeometry y="286" width="440" height="26" as="geometry" />
        </mxCell>
        <mxCell id="ebWgYVlHbPhllgyKeteg-139" value="callingUid:int" style="text;strokeColor=none;fillColor=none;align=left;verticalAlign=top;spacingLeft=4;spacingRight=4;overflow=hidden;rotatable=0;points=[[0,0.5],[1,0.5]];portConstraint=eastwest;whiteSpace=wrap;html=1;" vertex="1" parent="ebWgYVlHbPhllgyKeteg-134">
          <mxGeometry y="312" width="440" height="26" as="geometry" />
        </mxCell>
        <mxCell id="ebWgYVlHbPhllgyKeteg-138" value="realCallingPid:int" style="text;strokeColor=none;fillColor=none;align=left;verticalAlign=top;spacingLeft=4;spacingRight=4;overflow=hidden;rotatable=0;points=[[0,0.5],[1,0.5]];portConstraint=eastwest;whiteSpace=wrap;html=1;" vertex="1" parent="ebWgYVlHbPhllgyKeteg-134">
          <mxGeometry y="338" width="440" height="26" as="geometry" />
        </mxCell>
        <mxCell id="ebWgYVlHbPhllgyKeteg-150" value="realCallingUid:int" style="text;strokeColor=none;fillColor=none;align=left;verticalAlign=top;spacingLeft=4;spacingRight=4;overflow=hidden;rotatable=0;points=[[0,0.5],[1,0.5]];portConstraint=eastwest;whiteSpace=wrap;html=1;" vertex="1" parent="ebWgYVlHbPhllgyKeteg-134">
          <mxGeometry y="364" width="440" height="26" as="geometry" />
        </mxCell>
        <mxCell id="ebWgYVlHbPhllgyKeteg-149" value="callingPackage:String" style="text;strokeColor=none;fillColor=none;align=left;verticalAlign=top;spacingLeft=4;spacingRight=4;overflow=hidden;rotatable=0;points=[[0,0.5],[1,0.5]];portConstraint=eastwest;whiteSpace=wrap;html=1;" vertex="1" parent="ebWgYVlHbPhllgyKeteg-134">
          <mxGeometry y="390" width="440" height="26" as="geometry" />
        </mxCell>
        <mxCell id="ebWgYVlHbPhllgyKeteg-148" value="inTask:Task" style="text;strokeColor=none;fillColor=none;align=left;verticalAlign=top;spacingLeft=4;spacingRight=4;overflow=hidden;rotatable=0;points=[[0,0.5],[1,0.5]];portConstraint=eastwest;whiteSpace=wrap;html=1;" vertex="1" parent="ebWgYVlHbPhllgyKeteg-134">
          <mxGeometry y="416" width="440" height="26" as="geometry" />
        </mxCell>
        <mxCell id="ebWgYVlHbPhllgyKeteg-152" value="reason:String" style="text;strokeColor=none;fillColor=none;align=left;verticalAlign=top;spacingLeft=4;spacingRight=4;overflow=hidden;rotatable=0;points=[[0,0.5],[1,0.5]];portConstraint=eastwest;whiteSpace=wrap;html=1;" vertex="1" parent="ebWgYVlHbPhllgyKeteg-134">
          <mxGeometry y="442" width="440" height="26" as="geometry" />
        </mxCell>
        <mxCell id="ebWgYVlHbPhllgyKeteg-151" style="text;strokeColor=none;fillColor=none;align=left;verticalAlign=top;spacingLeft=4;spacingRight=4;overflow=hidden;rotatable=0;points=[[0,0.5],[1,0.5]];portConstraint=eastwest;whiteSpace=wrap;html=1;" vertex="1" parent="ebWgYVlHbPhllgyKeteg-134">
          <mxGeometry y="468" width="440" height="26" as="geometry" />
        </mxCell>
        <mxCell id="ebWgYVlHbPhllgyKeteg-153" value="WindowProcessController" style="swimlane;fontStyle=1;align=center;verticalAlign=top;childLayout=stackLayout;horizontal=1;startSize=26;horizontalStack=0;resizeParent=1;resizeParentMax=0;resizeLast=0;collapsible=1;marginBottom=0;whiteSpace=wrap;html=1;" vertex="1" parent="1">
          <mxGeometry x="1790" y="1370" width="160" height="86" as="geometry" />
        </mxCell>
        <mxCell id="ebWgYVlHbPhllgyKeteg-154" value="+ field: type" style="text;strokeColor=none;fillColor=none;align=left;verticalAlign=top;spacingLeft=4;spacingRight=4;overflow=hidden;rotatable=0;points=[[0,0.5],[1,0.5]];portConstraint=eastwest;whiteSpace=wrap;html=1;" vertex="1" parent="ebWgYVlHbPhllgyKeteg-153">
          <mxGeometry y="26" width="160" height="26" as="geometry" />
        </mxCell>
        <mxCell id="ebWgYVlHbPhllgyKeteg-155" value="" style="line;strokeWidth=1;fillColor=none;align=left;verticalAlign=middle;spacingTop=-1;spacingLeft=3;spacingRight=3;rotatable=0;labelPosition=right;points=[];portConstraint=eastwest;strokeColor=inherit;" vertex="1" parent="ebWgYVlHbPhllgyKeteg-153">
          <mxGeometry y="52" width="160" height="8" as="geometry" />
        </mxCell>
        <mxCell id="ebWgYVlHbPhllgyKeteg-156" value="+ method(type): type" style="text;strokeColor=none;fillColor=none;align=left;verticalAlign=top;spacingLeft=4;spacingRight=4;overflow=hidden;rotatable=0;points=[[0,0.5],[1,0.5]];portConstraint=eastwest;whiteSpace=wrap;html=1;" vertex="1" parent="ebWgYVlHbPhllgyKeteg-153">
          <mxGeometry y="60" width="160" height="26" as="geometry" />
        </mxCell>
      </root>
    </mxGraphModel>
  </diagram>
</mxfile>
